<svg width="99" height="46" viewBox="0 0 99 46" fill="none" xmlns="http://www.w3.org/2000/svg">
<path d="M4.16566 0.454545V15H0.216797V0.454545H4.16566ZM19.0655 7.64205H15.4576C15.4386 7.41951 15.3605 7.22775 15.2232 7.06676C15.0859 6.90578 14.9083 6.78267 14.6905 6.69744C14.4775 6.60748 14.2407 6.5625 13.9803 6.5625C13.6441 6.5625 13.3553 6.62405 13.1138 6.74716C12.8723 6.87027 12.754 7.04545 12.7587 7.27273C12.754 7.43371 12.8226 7.58286 12.9647 7.72017C13.1114 7.85748 13.3932 7.96402 13.8098 8.03977L16.0257 8.4375C17.1432 8.6411 17.9741 8.98437 18.5186 9.46733C19.0679 9.94555 19.3449 10.5871 19.3496 11.392C19.3449 12.1686 19.1129 12.8433 18.6536 13.4162C18.199 13.9844 17.5764 14.4247 16.7857 14.7372C15.9997 15.045 15.1025 15.1989 14.0939 15.1989C12.4273 15.1989 11.1228 14.858 10.1806 14.1761C9.24308 13.4943 8.71987 12.5947 8.61097 11.4773H12.503C12.5551 11.8229 12.7256 12.0904 13.0144 12.2798C13.3079 12.4645 13.6773 12.5568 14.1223 12.5568C14.4822 12.5568 14.7781 12.4953 15.0101 12.3722C15.2469 12.2491 15.3676 12.0739 15.3723 11.8466C15.3676 11.6383 15.2634 11.4725 15.0598 11.3494C14.861 11.2263 14.5485 11.1269 14.1223 11.0511L12.1905 10.7102C11.0778 10.5161 10.2445 10.1468 9.69052 9.60227C9.13654 9.05777 8.86192 8.35701 8.86665 7.5C8.86192 6.74242 9.06078 6.10085 9.46325 5.57528C9.87044 5.04498 10.4505 4.64252 11.2033 4.3679C11.9609 4.08854 12.8581 3.94886 13.8951 3.94886C15.4718 3.94886 16.7147 4.27557 17.6238 4.92898C18.5376 5.58239 19.0182 6.48674 19.0655 7.64205ZM26.8915 15.1705C26.1955 15.1705 25.58 15.0568 25.0449 14.8295C24.5146 14.5975 24.098 14.2472 23.7949 13.7784C23.4919 13.3097 23.3404 12.7131 23.3404 11.9886C23.3404 11.392 23.4422 10.883 23.6458 10.4616C23.8494 10.0355 24.1335 9.6875 24.498 9.41761C24.8626 9.14773 25.2864 8.94176 25.7694 8.79972C26.257 8.65767 26.7826 8.56534 27.3461 8.52273C27.9569 8.47538 28.4469 8.41856 28.8162 8.35227C29.1903 8.28125 29.4602 8.18419 29.6259 8.06108C29.7916 7.93324 29.8745 7.76515 29.8745 7.55682V7.52841C29.8745 7.24432 29.7656 7.02652 29.5478 6.875C29.33 6.72348 29.0506 6.64773 28.7097 6.64773C28.3356 6.64773 28.0302 6.73059 27.7935 6.89631C27.5615 7.05729 27.4218 7.30587 27.3745 7.64205H23.7665C23.8139 6.97917 24.0246 6.36837 24.3986 5.80966C24.7774 5.24621 25.329 4.7964 26.0534 4.46023C26.7779 4.11932 27.6822 3.94886 28.7665 3.94886C29.5478 3.94886 30.2485 4.04119 30.8688 4.22585C31.4891 4.40578 32.017 4.65909 32.4526 4.9858C32.8882 5.30777 33.2196 5.68655 33.4469 6.12216C33.6789 6.55303 33.7949 7.02178 33.7949 7.52841V15H30.1301V13.4659H30.0449C29.8271 13.8731 29.562 14.2022 29.2495 14.4531C28.9417 14.7041 28.589 14.8864 28.1912 15C27.7982 15.1136 27.365 15.1705 26.8915 15.1705ZM28.1699 12.6989C28.4682 12.6989 28.7476 12.6373 29.008 12.5142C29.2731 12.3911 29.4886 12.2135 29.6543 11.9815C29.82 11.7495 29.9029 11.4678 29.9029 11.1364V10.2273C29.7987 10.2699 29.6874 10.3101 29.5691 10.348C29.4554 10.3859 29.3323 10.4214 29.1998 10.4545C29.0719 10.4877 28.9346 10.5185 28.7878 10.5469C28.6458 10.5753 28.4966 10.6013 28.3404 10.625C28.0373 10.6723 27.7888 10.7505 27.5946 10.8594C27.4052 10.9635 27.2632 11.0938 27.1685 11.25C27.0785 11.4015 27.0336 11.572 27.0336 11.7614C27.0336 12.0644 27.1401 12.2964 27.3532 12.4574C27.5662 12.6184 27.8385 12.6989 28.1699 12.6989ZM38.6113 15V0.454545H42.5318V5.99432H42.5886C42.7306 5.625 42.939 5.28646 43.2136 4.97869C43.4882 4.66619 43.8291 4.41761 44.2363 4.23295C44.6435 4.04356 45.117 3.94886 45.6568 3.94886C46.3765 3.94886 47.0607 4.14062 47.7093 4.52415C48.3627 4.90767 48.8931 5.51136 49.3002 6.33523C49.7122 7.15909 49.9181 8.22917 49.9181 9.54545C49.9181 10.8049 49.7217 11.849 49.3287 12.6776C48.9404 13.5062 48.4196 14.1241 47.7662 14.5312C47.1175 14.9384 46.4049 15.142 45.6284 15.142C45.117 15.142 44.6601 15.0592 44.2576 14.8935C43.8599 14.723 43.519 14.4934 43.2349 14.2045C42.9556 13.911 42.7401 13.5795 42.5886 13.2102H42.5034V15H38.6113ZM42.4466 9.54545C42.4466 10.0758 42.5152 10.535 42.6525 10.9233C42.7946 11.3068 42.9934 11.6051 43.2491 11.8182C43.5095 12.0265 43.8197 12.1307 44.1795 12.1307C44.5394 12.1307 44.8448 12.0289 45.0957 11.8253C45.3514 11.617 45.5455 11.321 45.6781 10.9375C45.8154 10.5492 45.8841 10.0852 45.8841 9.54545C45.8841 9.00568 45.8154 8.54403 45.6781 8.16051C45.5455 7.77225 45.3514 7.47633 45.0957 7.27273C44.8448 7.06439 44.5394 6.96023 44.1795 6.96023C43.8197 6.96023 43.5095 7.06439 43.2491 7.27273C42.9934 7.47633 42.7946 7.77225 42.6525 8.16051C42.5152 8.54403 42.4466 9.00568 42.4466 9.54545ZM59.786 15.1989C58.6213 15.1989 57.6175 14.9763 56.7747 14.5312C55.9366 14.0814 55.2903 13.4375 54.8358 12.5994C54.3859 11.7566 54.161 10.7481 54.161 9.57386C54.161 8.44697 54.3883 7.46212 54.8429 6.61932C55.2974 5.77651 55.939 5.12074 56.7676 4.65199C57.5962 4.18324 58.5739 3.94886 59.7008 3.94886C60.5247 3.94886 61.2704 4.0767 61.938 4.33239C62.6056 4.58807 63.1762 4.95975 63.6497 5.44744C64.1232 5.9304 64.4877 6.51752 64.7434 7.20881C64.9991 7.90009 65.127 8.67898 65.127 9.54545V10.4545H55.3826V8.29545H61.519C61.5143 7.98295 61.4338 7.70833 61.2775 7.47159C61.126 7.23011 60.92 7.04309 60.6596 6.91051C60.4039 6.7732 60.1127 6.70455 59.786 6.70455C59.4688 6.70455 59.1776 6.7732 58.9125 6.91051C58.6473 7.04309 58.4342 7.22775 58.2733 7.46449C58.117 7.70123 58.0342 7.97822 58.0247 8.29545V10.625C58.0247 10.9754 58.0981 11.2879 58.2449 11.5625C58.3916 11.8371 58.6023 12.0526 58.877 12.2088C59.1516 12.3651 59.483 12.4432 59.8713 12.4432C60.1412 12.4432 60.3874 12.4053 60.6099 12.3295C60.8372 12.2538 61.0313 12.1449 61.1923 12.0028C61.3533 11.8561 61.4717 11.6809 61.5474 11.4773H65.127C65.0038 12.2348 64.7127 12.893 64.2534 13.4517C63.7941 14.0057 63.1857 14.4366 62.4281 14.7443C61.6752 15.0473 60.7946 15.1989 59.786 15.1989ZM73.6472 0.454545V15H69.7267V0.454545H73.6472ZM82.5652 0.454545V15H78.6447V0.454545H82.5652ZM92.79 15.1989C91.6252 15.1989 90.6214 14.9763 89.7786 14.5312C88.9405 14.0814 88.2942 13.4375 87.8397 12.5994C87.3899 11.7566 87.165 10.7481 87.165 9.57386C87.165 8.44697 87.3922 7.46212 87.8468 6.61932C88.3013 5.77651 88.9429 5.12074 89.7715 4.65199C90.6001 4.18324 91.5778 3.94886 92.7047 3.94886C93.5286 3.94886 94.2743 4.0767 94.9419 4.33239C95.6096 4.58807 96.1801 4.95975 96.6536 5.44744C97.1271 5.9304 97.4917 6.51752 97.7473 7.20881C98.003 7.90009 98.1309 8.67898 98.1309 9.54545V10.4545H88.3865V8.29545H94.5229C94.5182 7.98295 94.4377 7.70833 94.2814 7.47159C94.1299 7.23011 93.9239 7.04309 93.6635 6.91051C93.4078 6.7732 93.1167 6.70455 92.79 6.70455C92.4727 6.70455 92.1815 6.7732 91.9164 6.91051C91.6512 7.04309 91.4382 7.22775 91.2772 7.46449C91.1209 7.70123 91.0381 7.97822 91.0286 8.29545V10.625C91.0286 10.9754 91.102 11.2879 91.2488 11.5625C91.3955 11.8371 91.6062 12.0526 91.8809 12.2088C92.1555 12.3651 92.4869 12.4432 92.8752 12.4432C93.1451 12.4432 93.3913 12.4053 93.6138 12.3295C93.8411 12.2538 94.0352 12.1449 94.1962 12.0028C94.3572 11.8561 94.4756 11.6809 94.5513 11.4773H98.1309C98.0078 12.2348 97.7166 12.893 97.2573 13.4517C96.798 14.0057 96.1896 14.4366 95.432 14.7443C94.6792 15.0473 93.7985 15.1989 92.79 15.1989ZM30.5953 26.4545V41H26.6465V26.4545H30.5953ZM39.4441 26.4545V41H35.5236V26.4545H39.4441ZM46.8279 45.0909C46.3781 45.0909 45.9496 45.0554 45.5424 44.9844C45.1352 44.9181 44.7778 44.8258 44.47 44.7074L45.3223 41.9233C45.6442 42.0369 45.9378 42.1103 46.2029 42.1435C46.4728 42.1766 46.7025 42.1577 46.8919 42.0866C47.086 42.0156 47.2257 41.8807 47.3109 41.6818L47.3961 41.483L43.5609 30.0909H47.6518L49.4132 37.6477H49.5268L51.3166 30.0909H55.4359L51.4586 41.9091C51.2598 42.5104 50.9709 43.0502 50.5922 43.5284C50.2181 44.0114 49.7257 44.3925 49.1149 44.6719C48.5041 44.9512 47.7418 45.0909 46.8279 45.0909ZM59.551 41V30.0909H63.4714V41H59.551ZM61.5112 28.9545C60.9809 28.9545 60.5263 28.7794 60.1475 28.429C59.7688 28.0786 59.5794 27.6572 59.5794 27.1648C59.5794 26.6723 59.7688 26.2509 60.1475 25.9006C60.5263 25.5502 60.9809 25.375 61.5112 25.375C62.0462 25.375 62.5008 25.5502 62.8748 25.9006C63.2536 26.2509 63.443 26.6723 63.443 27.1648C63.443 27.6572 63.2536 28.0786 62.8748 28.429C62.5008 28.7794 62.0462 28.9545 61.5112 28.9545ZM71.5087 41.1705C70.8127 41.1705 70.1971 41.0568 69.6621 40.8295C69.1318 40.5975 68.7151 40.2472 68.4121 39.7784C68.1091 39.3097 67.9576 38.7131 67.9576 37.9886C67.9576 37.392 68.0594 36.883 68.263 36.4616C68.4666 36.0355 68.7507 35.6875 69.1152 35.4176C69.4798 35.1477 69.9036 34.9418 70.3865 34.7997C70.8742 34.6577 71.3998 34.5653 71.9632 34.5227C72.574 34.4754 73.0641 34.4186 73.4334 34.3523C73.8075 34.2812 74.0774 34.1842 74.2431 34.0611C74.4088 33.9332 74.4917 33.7652 74.4917 33.5568V33.5284C74.4917 33.2443 74.3828 33.0265 74.165 32.875C73.9471 32.7235 73.6678 32.6477 73.3269 32.6477C72.9528 32.6477 72.6474 32.7306 72.4107 32.8963C72.1787 33.0573 72.039 33.3059 71.9917 33.642H68.3837C68.431 32.9792 68.6417 32.3684 69.0158 31.8097C69.3946 31.2462 69.9462 30.7964 70.6706 30.4602C71.3951 30.1193 72.2994 29.9489 73.3837 29.9489C74.165 29.9489 74.8657 30.0412 75.486 30.2259C76.1062 30.4058 76.6342 30.6591 77.0698 30.9858C77.5054 31.3078 77.8368 31.6866 78.0641 32.1222C78.2961 32.553 78.4121 33.0218 78.4121 33.5284V41H74.7473V39.4659H74.6621C74.4443 39.8731 74.1792 40.2022 73.8667 40.4531C73.5589 40.7041 73.2061 40.8864 72.8084 41C72.4154 41.1136 71.9822 41.1705 71.5087 41.1705ZM72.7871 38.6989C73.0854 38.6989 73.3648 38.6373 73.6252 38.5142C73.8903 38.3911 74.1058 38.2135 74.2715 37.9815C74.4372 37.7495 74.5201 37.4678 74.5201 37.1364V36.2273C74.4159 36.2699 74.3046 36.3101 74.1863 36.348C74.0726 36.3859 73.9495 36.4214 73.8169 36.4545C73.6891 36.4877 73.5518 36.5185 73.405 36.5469C73.263 36.5753 73.1138 36.6013 72.9576 36.625C72.6545 36.6723 72.406 36.7505 72.2118 36.8594C72.0224 36.9635 71.8804 37.0938 71.7857 37.25C71.6957 37.4015 71.6507 37.572 71.6507 37.7614C71.6507 38.0644 71.7573 38.2964 71.9703 38.4574C72.1834 38.6184 72.4557 38.6989 72.7871 38.6989Z" fill="#CCCCFF"/>
</svg>
